<?xml version="1.0" encoding="UTF-8"?>
<svg class="svg-grid" xmlns="http://www.w3.org/2000/svg" width="328" height="328" viewBox="0 0 328 328" fill="currentColor">
  <g clip-path="url(#clip0_362_99)">
    <path d="M0 0H10.25C4.58908 0 0 4.58908 0 10.25V0Z" fill="currentColor"></path>
    <path fill-rule="evenodd" clip-rule="evenodd" d="M30.75 41C25.0891 41 20.5 36.4109 20.5 30.75C20.5 36.4109 15.9109 41 10.25 41C15.9109 41 20.5 45.5891 20.5 51.25C20.5 56.9109 15.9109 61.5 10.25 61.5C15.9109 61.5 20.5 66.0891 20.5 71.75C20.5 66.0891 25.0891 61.5 30.75 61.5C36.4109 61.5 41 66.0891 41 71.75C41 66.0891 45.5891 61.5 51.25 61.5C56.9109 61.5 61.5 66.0891 61.5 71.75C61.5 66.0891 66.0891 61.5 71.75 61.5C66.0891 61.5 61.5 56.9109 61.5 51.25C61.5 45.5891 66.0891 41 71.75 41C66.0891 41 61.5 36.4109 61.5 30.75C61.5 25.0891 66.0891 20.5 71.75 20.5C66.0891 20.5 61.5 15.9109 61.5 10.25C61.5 15.9109 56.9109 20.5 51.25 20.5C45.5891 20.5 41 15.9109 41 10.25C41 15.9109 36.4109 20.5 30.75 20.5C36.4109 20.5 41 25.0891 41 30.75C41 36.4109 36.4109 41 30.75 41ZM41 51.25C41 56.9109 36.4109 61.5 30.75 61.5C25.0891 61.5 20.5 56.9109 20.5 51.25C20.5 45.5891 25.0891 41 30.75 41C36.4109 41 41 45.5891 41 51.25ZM51.25 41C56.9109 41 61.5 45.5891 61.5 51.25C61.5 56.9109 56.9109 61.5 51.25 61.5C45.5891 61.5 41 56.9109 41 51.25C41 45.5891 45.5891 41 51.25 41ZM51.25 41C45.5891 41 41 36.4109 41 30.75C41 25.0891 45.5891 20.5 51.25 20.5C56.9109 20.5 61.5 25.0891 61.5 30.75C61.5 36.4109 56.9109 41 51.25 41Z" fill="currentColor"></path>
    <path fill-rule="evenodd" clip-rule="evenodd" d="M10.25 20.5C4.5891 20.5 0 15.9109 0 10.25V82H82V0H10.25C15.9109 0 20.5 4.5891 20.5 10.25C20.5 15.9109 15.9109 20.5 10.25 20.5ZM20.5 30.75C20.5 25.0891 15.9109 20.5 10.25 20.5C4.5891 20.5 0 25.0891 0 30.75C0 36.4109 4.5891 41 10.25 41C4.5891 41 0 45.5891 0 51.25C0 56.9109 4.5891 61.5 10.25 61.5C4.5891 61.5 0 66.0891 0 71.75C0 77.4109 4.5891 82 10.25 82C15.9109 82 20.5 77.4109 20.5 71.75C20.5 77.4109 25.0891 82 30.75 82C36.4109 82 41 77.4109 41 71.75C41 77.4109 45.5891 82 51.25 82C56.9109 82 61.5 77.4109 61.5 71.75C61.5 77.4109 66.0891 82 71.75 82C77.4109 82 82 77.4109 82 71.75C82 66.0891 77.4109 61.5 71.75 61.5C77.4109 61.5 82 56.9109 82 51.25C82 45.5891 77.4109 41 71.75 41C77.4109 41 82 36.4109 82 30.75C82 25.0891 77.4109 20.5 71.75 20.5C77.4109 20.5 82 15.9109 82 10.25C82 4.5891 77.4109 0 71.75 0C66.0891 0 61.5 4.5891 61.5 10.25C61.5 4.5891 56.9109 0 51.25 0C45.5891 0 41 4.5891 41 10.25C41 4.5891 36.4109 0 30.75 0C25.0891 0 20.5 4.5891 20.5 10.25C20.5 15.9109 25.0891 20.5 30.75 20.5C25.0891 20.5 20.5 25.0891 20.5 30.75Z" fill="currentColor"></path>
    <path d="M82 0H92.25C86.5891 0 82 4.58908 82 10.25V0Z" fill="currentColor"></path>
    <path fill-rule="evenodd" clip-rule="evenodd" d="M112.75 41C107.089 41 102.5 36.4109 102.5 30.75C102.5 36.4109 97.9109 41 92.25 41C97.9109 41 102.5 45.5891 102.5 51.25C102.5 56.9109 97.9109 61.5 92.25 61.5C97.9109 61.5 102.5 66.0891 102.5 71.75C102.5 66.0891 107.089 61.5 112.75 61.5C118.411 61.5 123 66.0891 123 71.75C123 66.0891 127.589 61.5 133.25 61.5C138.911 61.5 143.5 66.0891 143.5 71.75C143.5 66.0891 148.089 61.5 153.75 61.5C148.089 61.5 143.5 56.9109 143.5 51.25C143.5 45.5891 148.089 41 153.75 41C148.089 41 143.5 36.4109 143.5 30.75C143.5 25.0891 148.089 20.5 153.75 20.5C148.089 20.5 143.5 15.9109 143.5 10.25C143.5 15.9109 138.911 20.5 133.25 20.5C127.589 20.5 123 15.9109 123 10.25C123 15.9109 118.411 20.5 112.75 20.5C118.411 20.5 123 25.0891 123 30.75C123 36.4109 118.411 41 112.75 41ZM123 51.25C123 56.9109 118.411 61.5 112.75 61.5C107.089 61.5 102.5 56.9109 102.5 51.25C102.5 45.5891 107.089 41 112.75 41C118.411 41 123 45.5891 123 51.25ZM133.25 41C138.911 41 143.5 45.5891 143.5 51.25C143.5 56.9109 138.911 61.5 133.25 61.5C127.589 61.5 123 56.9109 123 51.25C123 45.5891 127.589 41 133.25 41ZM133.25 41C127.589 41 123 36.4109 123 30.75C123 25.0891 127.589 20.5 133.25 20.5C138.911 20.5 143.5 25.0891 143.5 30.75C143.5 36.4109 138.911 41 133.25 41Z" fill="currentColor"></path>
    <path fill-rule="evenodd" clip-rule="evenodd" d="M92.25 20.5C86.5891 20.5 82 15.9109 82 10.25V82H164V0H92.25C97.9109 0 102.5 4.5891 102.5 10.25C102.5 15.9109 97.9109 20.5 92.25 20.5ZM102.5 30.75C102.5 25.0891 97.9109 20.5 92.25 20.5C86.5891 20.5 82 25.0891 82 30.75C82 36.4109 86.5891 41 92.25 41C86.5891 41 82 45.5891 82 51.25C82 56.9109 86.5891 61.5 92.25 61.5C86.5891 61.5 82 66.0891 82 71.75C82 77.4109 86.5891 82 92.25 82C97.9109 82 102.5 77.4109 102.5 71.75C102.5 77.4109 107.089 82 112.75 82C118.411 82 123 77.4109 123 71.75C123 77.4109 127.589 82 133.25 82C138.911 82 143.5 77.4109 143.5 71.75C143.5 77.4109 148.089 82 153.75 82C159.411 82 164 77.4109 164 71.75C164 66.0891 159.411 61.5 153.75 61.5C159.411 61.5 164 56.9109 164 51.25C164 45.5891 159.411 41 153.75 41C159.411 41 164 36.4109 164 30.75C164 25.0891 159.411 20.5 153.75 20.5C159.411 20.5 164 15.9109 164 10.25C164 4.5891 159.411 0 153.75 0C148.089 0 143.5 4.5891 143.5 10.25C143.5 4.5891 138.911 0 133.25 0C127.589 0 123 4.5891 123 10.25C123 4.5891 118.411 0 112.75 0C107.089 0 102.5 4.5891 102.5 10.25C102.5 15.9109 107.089 20.5 112.75 20.5C107.089 20.5 102.5 25.0891 102.5 30.75Z" fill="currentColor"></path>
    <path d="M164 0H174.25C168.589 0 164 4.58908 164 10.25V0Z" fill="currentColor"></path>
    <path fill-rule="evenodd" clip-rule="evenodd" d="M194.75 41C189.089 41 184.5 36.4109 184.5 30.75C184.5 36.4109 179.911 41 174.25 41C179.911 41 184.5 45.5891 184.5 51.25C184.5 56.9109 179.911 61.5 174.25 61.5C179.911 61.5 184.5 66.0891 184.5 71.75C184.5 66.0891 189.089 61.5 194.75 61.5C200.411 61.5 205 66.0891 205 71.75C205 66.0891 209.589 61.5 215.25 61.5C220.911 61.5 225.5 66.0891 225.5 71.75C225.5 66.0891 230.089 61.5 235.75 61.5C230.089 61.5 225.5 56.9109 225.5 51.25C225.5 45.5891 230.089 41 235.75 41C230.089 41 225.5 36.4109 225.5 30.75C225.5 25.0891 230.089 20.5 235.75 20.5C230.089 20.5 225.5 15.9109 225.5 10.25C225.5 15.9109 220.911 20.5 215.25 20.5C209.589 20.5 205 15.9109 205 10.25C205 15.9109 200.411 20.5 194.75 20.5C200.411 20.5 205 25.0891 205 30.75C205 36.4109 200.411 41 194.75 41ZM205 51.25C205 56.9109 200.411 61.5 194.75 61.5C189.089 61.5 184.5 56.9109 184.5 51.25C184.5 45.5891 189.089 41 194.75 41C200.411 41 205 45.5891 205 51.25ZM215.25 41C220.911 41 225.5 45.5891 225.5 51.25C225.5 56.9109 220.911 61.5 215.25 61.5C209.589 61.5 205 56.9109 205 51.25C205 45.5891 209.589 41 215.25 41ZM215.25 41C209.589 41 205 36.4109 205 30.75C205 25.0891 209.589 20.5 215.25 20.5C220.911 20.5 225.5 25.0891 225.5 30.75C225.5 36.4109 220.911 41 215.25 41Z" fill="currentColor"></path>
    <path fill-rule="evenodd" clip-rule="evenodd" d="M174.25 20.5C168.589 20.5 164 15.9109 164 10.25V82H246V0H174.25C179.911 0 184.5 4.5891 184.5 10.25C184.5 15.9109 179.911 20.5 174.25 20.5ZM184.5 30.75C184.5 25.0891 179.911 20.5 174.25 20.5C168.589 20.5 164 25.0891 164 30.75C164 36.4109 168.589 41 174.25 41C168.589 41 164 45.5891 164 51.25C164 56.9109 168.589 61.5 174.25 61.5C168.589 61.5 164 66.0891 164 71.75C164 77.4109 168.589 82 174.25 82C179.911 82 184.5 77.4109 184.5 71.75C184.5 77.4109 189.089 82 194.75 82C200.411 82 205 77.4109 205 71.75C205 77.4109 209.589 82 215.25 82C220.911 82 225.5 77.4109 225.5 71.75C225.5 77.4109 230.089 82 235.75 82C241.411 82 246 77.4109 246 71.75C246 66.0891 241.411 61.5 235.75 61.5C241.411 61.5 246 56.9109 246 51.25C246 45.5891 241.411 41 235.75 41C241.411 41 246 36.4109 246 30.75C246 25.0891 241.411 20.5 235.75 20.5C241.411 20.5 246 15.9109 246 10.25C246 4.5891 241.411 0 235.75 0C230.089 0 225.5 4.5891 225.5 10.25C225.5 4.5891 220.911 0 215.25 0C209.589 0 205 4.5891 205 10.25C205 4.5891 200.411 0 194.75 0C189.089 0 184.5 4.5891 184.5 10.25C184.5 15.9109 189.089 20.5 194.75 20.5C189.089 20.5 184.5 25.0891 184.5 30.75Z" fill="currentColor"></path>
    <path d="M246 0H256.25C250.589 0 246 4.58908 246 10.25V0Z" fill="currentColor"></path>
    <path fill-rule="evenodd" clip-rule="evenodd" d="M276.75 41C271.089 41 266.5 36.4109 266.5 30.75C266.5 36.4109 261.911 41 256.25 41C261.911 41 266.5 45.5891 266.5 51.25C266.5 56.9109 261.911 61.5 256.25 61.5C261.911 61.5 266.5 66.0891 266.5 71.75C266.5 66.0891 271.089 61.5 276.75 61.5C282.411 61.5 287 66.0891 287 71.75C287 66.0891 291.589 61.5 297.25 61.5C302.911 61.5 307.5 66.0891 307.5 71.75C307.5 66.0891 312.089 61.5 317.75 61.5C312.089 61.5 307.5 56.9109 307.5 51.25C307.5 45.5891 312.089 41 317.75 41C312.089 41 307.5 36.4109 307.5 30.75C307.5 25.0891 312.089 20.5 317.75 20.5C312.089 20.5 307.5 15.9109 307.5 10.25C307.5 15.9109 302.911 20.5 297.25 20.5C291.589 20.5 287 15.9109 287 10.25C287 15.9109 282.411 20.5 276.75 20.5C282.411 20.5 287 25.0891 287 30.75C287 36.4109 282.411 41 276.75 41ZM287 51.25C287 56.9109 282.411 61.5 276.75 61.5C271.089 61.5 266.5 56.9109 266.5 51.25C266.5 45.5891 271.089 41 276.75 41C282.411 41 287 45.5891 287 51.25ZM297.25 41C302.911 41 307.5 45.5891 307.5 51.25C307.5 56.9109 302.911 61.5 297.25 61.5C291.589 61.5 287 56.9109 287 51.25C287 45.5891 291.589 41 297.25 41ZM297.25 41C291.589 41 287 36.4109 287 30.75C287 25.0891 291.589 20.5 297.25 20.5C302.911 20.5 307.5 25.0891 307.5 30.75C307.5 36.4109 302.911 41 297.25 41Z" fill="currentColor"></path>
    <path fill-rule="evenodd" clip-rule="evenodd" d="M256.25 20.5C250.589 20.5 246 15.9109 246 10.25V82H328V0H256.25C261.911 0 266.5 4.5891 266.5 10.25C266.5 15.9109 261.911 20.5 256.25 20.5ZM266.5 30.75C266.5 25.0891 261.911 20.5 256.25 20.5C250.589 20.5 246 25.0891 246 30.75C246 36.4109 250.589 41 256.25 41C250.589 41 246 45.5891 246 51.25C246 56.9109 250.589 61.5 256.25 61.5C250.589 61.5 246 66.0891 246 71.75C246 77.4109 250.589 82 256.25 82C261.911 82 266.5 77.4109 266.5 71.75C266.5 77.4109 271.089 82 276.75 82C282.411 82 287 77.4109 287 71.75C287 77.4109 291.589 82 297.25 82C302.911 82 307.5 77.4109 307.5 71.75C307.5 77.4109 312.089 82 317.75 82C323.411 82 328 77.4109 328 71.75C328 66.0891 323.411 61.5 317.75 61.5C323.411 61.5 328 56.9109 328 51.25C328 45.5891 323.411 41 317.75 41C323.411 41 328 36.4109 328 30.75C328 25.0891 323.411 20.5 317.75 20.5C323.411 20.5 328 15.9109 328 10.25C328 4.5891 323.411 0 317.75 0C312.089 0 307.5 4.5891 307.5 10.25C307.5 4.5891 302.911 0 297.25 0C291.589 0 287 4.5891 287 10.25C287 4.5891 282.411 0 276.75 0C271.089 0 266.5 4.5891 266.5 10.25C266.5 15.9109 271.089 20.5 276.75 20.5C271.089 20.5 266.5 25.0891 266.5 30.75Z" fill="currentColor"></path>
    <path d="M0 82H10.25C4.58908 82 0 86.5891 0 92.25V82Z" fill="currentColor"></path>
    <path fill-rule="evenodd" clip-rule="evenodd" d="M30.75 123C25.0891 123 20.5 118.411 20.5 112.75C20.5 118.411 15.9109 123 10.25 123C15.9109 123 20.5 127.589 20.5 133.25C20.5 138.911 15.9109 143.5 10.25 143.5C15.9109 143.5 20.5 148.089 20.5 153.75C20.5 148.089 25.0891 143.5 30.75 143.5C36.4109 143.5 41 148.089 41 153.75C41 148.089 45.5891 143.5 51.25 143.5C56.9109 143.5 61.5 148.089 61.5 153.75C61.5 148.089 66.0891 143.5 71.75 143.5C66.0891 143.5 61.5 138.911 61.5 133.25C61.5 127.589 66.0891 123 71.75 123C66.0891 123 61.5 118.411 61.5 112.75C61.5 107.089 66.0891 102.5 71.75 102.5C66.0891 102.5 61.5 97.9109 61.5 92.25C61.5 97.9109 56.9109 102.5 51.25 102.5C45.5891 102.5 41 97.9109 41 92.25C41 97.9109 36.4109 102.5 30.75 102.5C36.4109 102.5 41 107.089 41 112.75C41 118.411 36.4109 123 30.75 123ZM41 133.25C41 138.911 36.4109 143.5 30.75 143.5C25.0891 143.5 20.5 138.911 20.5 133.25C20.5 127.589 25.0891 123 30.75 123C36.4109 123 41 127.589 41 133.25ZM51.25 123C56.9109 123 61.5 127.589 61.5 133.25C61.5 138.911 56.9109 143.5 51.25 143.5C45.5891 143.5 41 138.911 41 133.25C41 127.589 45.5891 123 51.25 123ZM51.25 123C45.5891 123 41 118.411 41 112.75C41 107.089 45.5891 102.5 51.25 102.5C56.9109 102.5 61.5 107.089 61.5 112.75C61.5 118.411 56.9109 123 51.25 123Z" fill="currentColor"></path>
    <path fill-rule="evenodd" clip-rule="evenodd" d="M10.25 102.5C4.5891 102.5 0 97.9109 0 92.25V164H82V82H10.25C15.9109 82 20.5 86.5891 20.5 92.25C20.5 97.9109 15.9109 102.5 10.25 102.5ZM20.5 112.75C20.5 107.089 15.9109 102.5 10.25 102.5C4.5891 102.5 0 107.089 0 112.75C0 118.411 4.5891 123 10.25 123C4.5891 123 0 127.589 0 133.25C0 138.911 4.5891 143.5 10.25 143.5C4.5891 143.5 0 148.089 0 153.75C0 159.411 4.5891 164 10.25 164C15.9109 164 20.5 159.411 20.5 153.75C20.5 159.411 25.0891 164 30.75 164C36.4109 164 41 159.411 41 153.75C41 159.411 45.5891 164 51.25 164C56.9109 164 61.5 159.411 61.5 153.75C61.5 159.411 66.0891 164 71.75 164C77.4109 164 82 159.411 82 153.75C82 148.089 77.4109 143.5 71.75 143.5C77.4109 143.5 82 138.911 82 133.25C82 127.589 77.4109 123 71.75 123C77.4109 123 82 118.411 82 112.75C82 107.089 77.4109 102.5 71.75 102.5C77.4109 102.5 82 97.9109 82 92.25C82 86.5891 77.4109 82 71.75 82C66.0891 82 61.5 86.5891 61.5 92.25C61.5 86.5891 56.9109 82 51.25 82C45.5891 82 41 86.5891 41 92.25C41 86.5891 36.4109 82 30.75 82C25.0891 82 20.5 86.5891 20.5 92.25C20.5 97.9109 25.0891 102.5 30.75 102.5C25.0891 102.5 20.5 107.089 20.5 112.75Z" fill="currentColor"></path>
    <path d="M82 82H92.25C86.5891 82 82 86.5891 82 92.25V82Z" fill="currentColor"></path>
    <path fill-rule="evenodd" clip-rule="evenodd" d="M112.75 123C107.089 123 102.5 118.411 102.5 112.75C102.5 118.411 97.9109 123 92.25 123C97.9109 123 102.5 127.589 102.5 133.25C102.5 138.911 97.9109 143.5 92.25 143.5C97.9109 143.5 102.5 148.089 102.5 153.75C102.5 148.089 107.089 143.5 112.75 143.5C118.411 143.5 123 148.089 123 153.75C123 148.089 127.589 143.5 133.25 143.5C138.911 143.5 143.5 148.089 143.5 153.75C143.5 148.089 148.089 143.5 153.75 143.5C148.089 143.5 143.5 138.911 143.5 133.25C143.5 127.589 148.089 123 153.75 123C148.089 123 143.5 118.411 143.5 112.75C143.5 107.089 148.089 102.5 153.75 102.5C148.089 102.5 143.5 97.9109 143.5 92.25C143.5 97.9109 138.911 102.5 133.25 102.5C127.589 102.5 123 97.9109 123 92.25C123 97.9109 118.411 102.5 112.75 102.5C118.411 102.5 123 107.089 123 112.75C123 118.411 118.411 123 112.75 123ZM123 133.25C123 138.911 118.411 143.5 112.75 143.5C107.089 143.5 102.5 138.911 102.5 133.25C102.5 127.589 107.089 123 112.75 123C118.411 123 123 127.589 123 133.25ZM133.25 123C138.911 123 143.5 127.589 143.5 133.25C143.5 138.911 138.911 143.5 133.25 143.5C127.589 143.5 123 138.911 123 133.25C123 127.589 127.589 123 133.25 123ZM133.25 123C127.589 123 123 118.411 123 112.75C123 107.089 127.589 102.5 133.25 102.5C138.911 102.5 143.5 107.089 143.5 112.75C143.5 118.411 138.911 123 133.25 123Z" fill="currentColor"></path>
    <path fill-rule="evenodd" clip-rule="evenodd" d="M92.25 102.5C86.5891 102.5 82 97.9109 82 92.25V164H164V82H92.25C97.9109 82 102.5 86.5891 102.5 92.25C102.5 97.9109 97.9109 102.5 92.25 102.5ZM102.5 112.75C102.5 107.089 97.9109 102.5 92.25 102.5C86.5891 102.5 82 107.089 82 112.75C82 118.411 86.5891 123 92.25 123C86.5891 123 82 127.589 82 133.25C82 138.911 86.5891 143.5 92.25 143.5C86.5891 143.5 82 148.089 82 153.75C82 159.411 86.5891 164 92.25 164C97.9109 164 102.5 159.411 102.5 153.75C102.5 159.411 107.089 164 112.75 164C118.411 164 123 159.411 123 153.75C123 159.411 127.589 164 133.25 164C138.911 164 143.5 159.411 143.5 153.75C143.5 159.411 148.089 164 153.75 164C159.411 164 164 159.411 164 153.75C164 148.089 159.411 143.5 153.75 143.5C159.411 143.5 164 138.911 164 133.25C164 127.589 159.411 123 153.75 123C159.411 123 164 118.411 164 112.75C164 107.089 159.411 102.5 153.75 102.5C159.411 102.5 164 97.9109 164 92.25C164 86.5891 159.411 82 153.75 82C148.089 82 143.5 86.5891 143.5 92.25C143.5 86.5891 138.911 82 133.25 82C127.589 82 123 86.5891 123 92.25C123 86.5891 118.411 82 112.75 82C107.089 82 102.5 86.5891 102.5 92.25C102.5 97.9109 107.089 102.5 112.75 102.5C107.089 102.5 102.5 107.089 102.5 112.75Z" fill="currentColor"></path>
    <path d="M164 82H174.25C168.589 82 164 86.5891 164 92.25V82Z" fill="currentColor"></path>
    <path fill-rule="evenodd" clip-rule="evenodd" d="M194.75 123C189.089 123 184.5 118.411 184.5 112.75C184.5 118.411 179.911 123 174.25 123C179.911 123 184.5 127.589 184.5 133.25C184.5 138.911 179.911 143.5 174.25 143.5C179.911 143.5 184.5 148.089 184.5 153.75C184.5 148.089 189.089 143.5 194.75 143.5C200.411 143.5 205 148.089 205 153.75C205 148.089 209.589 143.5 215.25 143.5C220.911 143.5 225.5 148.089 225.5 153.75C225.5 148.089 230.089 143.5 235.75 143.5C230.089 143.5 225.5 138.911 225.5 133.25C225.5 127.589 230.089 123 235.75 123C230.089 123 225.5 118.411 225.5 112.75C225.5 107.089 230.089 102.5 235.75 102.5C230.089 102.5 225.5 97.9109 225.5 92.25C225.5 97.9109 220.911 102.5 215.25 102.5C209.589 102.5 205 97.9109 205 92.25C205 97.9109 200.411 102.5 194.75 102.5C200.411 102.5 205 107.089 205 112.75C205 118.411 200.411 123 194.75 123ZM205 133.25C205 138.911 200.411 143.5 194.75 143.5C189.089 143.5 184.5 138.911 184.5 133.25C184.5 127.589 189.089 123 194.75 123C200.411 123 205 127.589 205 133.25ZM215.25 123C220.911 123 225.5 127.589 225.5 133.25C225.5 138.911 220.911 143.5 215.25 143.5C209.589 143.5 205 138.911 205 133.25C205 127.589 209.589 123 215.25 123ZM215.25 123C209.589 123 205 118.411 205 112.75C205 107.089 209.589 102.5 215.25 102.5C220.911 102.5 225.5 107.089 225.5 112.75C225.5 118.411 220.911 123 215.25 123Z" fill="currentColor"></path>
    <path fill-rule="evenodd" clip-rule="evenodd" d="M174.25 102.5C168.589 102.5 164 97.9109 164 92.25V164H246V82H174.25C179.911 82 184.5 86.5891 184.5 92.25C184.5 97.9109 179.911 102.5 174.25 102.5ZM184.5 112.75C184.5 107.089 179.911 102.5 174.25 102.5C168.589 102.5 164 107.089 164 112.75C164 118.411 168.589 123 174.25 123C168.589 123 164 127.589 164 133.25C164 138.911 168.589 143.5 174.25 143.5C168.589 143.5 164 148.089 164 153.75C164 159.411 168.589 164 174.25 164C179.911 164 184.5 159.411 184.5 153.75C184.5 159.411 189.089 164 194.75 164C200.411 164 205 159.411 205 153.75C205 159.411 209.589 164 215.25 164C220.911 164 225.5 159.411 225.5 153.75C225.5 159.411 230.089 164 235.75 164C241.411 164 246 159.411 246 153.75C246 148.089 241.411 143.5 235.75 143.5C241.411 143.5 246 138.911 246 133.25C246 127.589 241.411 123 235.75 123C241.411 123 246 118.411 246 112.75C246 107.089 241.411 102.5 235.75 102.5C241.411 102.5 246 97.9109 246 92.25C246 86.5891 241.411 82 235.75 82C230.089 82 225.5 86.5891 225.5 92.25C225.5 86.5891 220.911 82 215.25 82C209.589 82 205 86.5891 205 92.25C205 86.5891 200.411 82 194.75 82C189.089 82 184.5 86.5891 184.5 92.25C184.5 97.9109 189.089 102.5 194.75 102.5C189.089 102.5 184.5 107.089 184.5 112.75Z" fill="currentColor"></path>
    <path d="M246 82H256.25C250.589 82 246 86.5891 246 92.25V82Z" fill="currentColor"></path>
    <path fill-rule="evenodd" clip-rule="evenodd" d="M276.75 123C271.089 123 266.5 118.411 266.5 112.75C266.5 118.411 261.911 123 256.25 123C261.911 123 266.5 127.589 266.5 133.25C266.5 138.911 261.911 143.5 256.25 143.5C261.911 143.5 266.5 148.089 266.5 153.75C266.5 148.089 271.089 143.5 276.75 143.5C282.411 143.5 287 148.089 287 153.75C287 148.089 291.589 143.5 297.25 143.5C302.911 143.5 307.5 148.089 307.5 153.75C307.5 148.089 312.089 143.5 317.75 143.5C312.089 143.5 307.5 138.911 307.5 133.25C307.5 127.589 312.089 123 317.75 123C312.089 123 307.5 118.411 307.5 112.75C307.5 107.089 312.089 102.5 317.75 102.5C312.089 102.5 307.5 97.9109 307.5 92.25C307.5 97.9109 302.911 102.5 297.25 102.5C291.589 102.5 287 97.9109 287 92.25C287 97.9109 282.411 102.5 276.75 102.5C282.411 102.5 287 107.089 287 112.75C287 118.411 282.411 123 276.75 123ZM287 133.25C287 138.911 282.411 143.5 276.75 143.5C271.089 143.5 266.5 138.911 266.5 133.25C266.5 127.589 271.089 123 276.75 123C282.411 123 287 127.589 287 133.25ZM297.25 123C302.911 123 307.5 127.589 307.5 133.25C307.5 138.911 302.911 143.5 297.25 143.5C291.589 143.5 287 138.911 287 133.25C287 127.589 291.589 123 297.25 123ZM297.25 123C291.589 123 287 118.411 287 112.75C287 107.089 291.589 102.5 297.25 102.5C302.911 102.5 307.5 107.089 307.5 112.75C307.5 118.411 302.911 123 297.25 123Z" fill="currentColor"></path>
    <path fill-rule="evenodd" clip-rule="evenodd" d="M256.25 102.5C250.589 102.5 246 97.9109 246 92.25V164H328V82H256.25C261.911 82 266.5 86.5891 266.5 92.25C266.5 97.9109 261.911 102.5 256.25 102.5ZM266.5 112.75C266.5 107.089 261.911 102.5 256.25 102.5C250.589 102.5 246 107.089 246 112.75C246 118.411 250.589 123 256.25 123C250.589 123 246 127.589 246 133.25C246 138.911 250.589 143.5 256.25 143.5C250.589 143.5 246 148.089 246 153.75C246 159.411 250.589 164 256.25 164C261.911 164 266.5 159.411 266.5 153.75C266.5 159.411 271.089 164 276.75 164C282.411 164 287 159.411 287 153.75C287 159.411 291.589 164 297.25 164C302.911 164 307.5 159.411 307.5 153.75C307.5 159.411 312.089 164 317.75 164C323.411 164 328 159.411 328 153.75C328 148.089 323.411 143.5 317.75 143.5C323.411 143.5 328 138.911 328 133.25C328 127.589 323.411 123 317.75 123C323.411 123 328 118.411 328 112.75C328 107.089 323.411 102.5 317.75 102.5C323.411 102.5 328 97.9109 328 92.25C328 86.5891 323.411 82 317.75 82C312.089 82 307.5 86.5891 307.5 92.25C307.5 86.5891 302.911 82 297.25 82C291.589 82 287 86.5891 287 92.25C287 86.5891 282.411 82 276.75 82C271.089 82 266.5 86.5891 266.5 92.25C266.5 97.9109 271.089 102.5 276.75 102.5C271.089 102.5 266.5 107.089 266.5 112.75Z" fill="currentColor"></path>
    <path d="M0 164H10.25C4.58908 164 0 168.589 0 174.25V164Z" fill="currentColor"></path>
    <path fill-rule="evenodd" clip-rule="evenodd" d="M30.75 205C25.0891 205 20.5 200.411 20.5 194.75C20.5 200.411 15.9109 205 10.25 205C15.9109 205 20.5 209.589 20.5 215.25C20.5 220.911 15.9109 225.5 10.25 225.5C15.9109 225.5 20.5 230.089 20.5 235.75C20.5 230.089 25.0891 225.5 30.75 225.5C36.4109 225.5 41 230.089 41 235.75C41 230.089 45.5891 225.5 51.25 225.5C56.9109 225.5 61.5 230.089 61.5 235.75C61.5 230.089 66.0891 225.5 71.75 225.5C66.0891 225.5 61.5 220.911 61.5 215.25C61.5 209.589 66.0891 205 71.75 205C66.0891 205 61.5 200.411 61.5 194.75C61.5 189.089 66.0891 184.5 71.75 184.5C66.0891 184.5 61.5 179.911 61.5 174.25C61.5 179.911 56.9109 184.5 51.25 184.5C45.5891 184.5 41 179.911 41 174.25C41 179.911 36.4109 184.5 30.75 184.5C36.4109 184.5 41 189.089 41 194.75C41 200.411 36.4109 205 30.75 205ZM41 215.25C41 220.911 36.4109 225.5 30.75 225.5C25.0891 225.5 20.5 220.911 20.5 215.25C20.5 209.589 25.0891 205 30.75 205C36.4109 205 41 209.589 41 215.25ZM51.25 205C56.9109 205 61.5 209.589 61.5 215.25C61.5 220.911 56.9109 225.5 51.25 225.5C45.5891 225.5 41 220.911 41 215.25C41 209.589 45.5891 205 51.25 205ZM51.25 205C45.5891 205 41 200.411 41 194.75C41 189.089 45.5891 184.5 51.25 184.5C56.9109 184.5 61.5 189.089 61.5 194.75C61.5 200.411 56.9109 205 51.25 205Z" fill="currentColor"></path>
    <path fill-rule="evenodd" clip-rule="evenodd" d="M10.25 184.5C4.5891 184.5 0 179.911 0 174.25V246H82V164H10.25C15.9109 164 20.5 168.589 20.5 174.25C20.5 179.911 15.9109 184.5 10.25 184.5ZM20.5 194.75C20.5 189.089 15.9109 184.5 10.25 184.5C4.5891 184.5 0 189.089 0 194.75C0 200.411 4.5891 205 10.25 205C4.5891 205 0 209.589 0 215.25C0 220.911 4.5891 225.5 10.25 225.5C4.5891 225.5 0 230.089 0 235.75C0 241.411 4.5891 246 10.25 246C15.9109 246 20.5 241.411 20.5 235.75C20.5 241.411 25.0891 246 30.75 246C36.4109 246 41 241.411 41 235.75C41 241.411 45.5891 246 51.25 246C56.9109 246 61.5 241.411 61.5 235.75C61.5 241.411 66.0891 246 71.75 246C77.4109 246 82 241.411 82 235.75C82 230.089 77.4109 225.5 71.75 225.5C77.4109 225.5 82 220.911 82 215.25C82 209.589 77.4109 205 71.75 205C77.4109 205 82 200.411 82 194.75C82 189.089 77.4109 184.5 71.75 184.5C77.4109 184.5 82 179.911 82 174.25C82 168.589 77.4109 164 71.75 164C66.0891 164 61.5 168.589 61.5 174.25C61.5 168.589 56.9109 164 51.25 164C45.5891 164 41 168.589 41 174.25C41 168.589 36.4109 164 30.75 164C25.0891 164 20.5 168.589 20.5 174.25C20.5 179.911 25.0891 184.5 30.75 184.5C25.0891 184.5 20.5 189.089 20.5 194.75Z" fill="currentColor"></path>
    <path d="M82 164H92.25C86.5891 164 82 168.589 82 174.25V164Z" fill="currentColor"></path>
    <path fill-rule="evenodd" clip-rule="evenodd" d="M112.75 205C107.089 205 102.5 200.411 102.5 194.75C102.5 200.411 97.9109 205 92.25 205C97.9109 205 102.5 209.589 102.5 215.25C102.5 220.911 97.9109 225.5 92.25 225.5C97.9109 225.5 102.5 230.089 102.5 235.75C102.5 230.089 107.089 225.5 112.75 225.5C118.411 225.5 123 230.089 123 235.75C123 230.089 127.589 225.5 133.25 225.5C138.911 225.5 143.5 230.089 143.5 235.75C143.5 230.089 148.089 225.5 153.75 225.5C148.089 225.5 143.5 220.911 143.5 215.25C143.5 209.589 148.089 205 153.75 205C148.089 205 143.5 200.411 143.5 194.75C143.5 189.089 148.089 184.5 153.75 184.5C148.089 184.5 143.5 179.911 143.5 174.25C143.5 179.911 138.911 184.5 133.25 184.5C127.589 184.5 123 179.911 123 174.25C123 179.911 118.411 184.5 112.75 184.5C118.411 184.5 123 189.089 123 194.75C123 200.411 118.411 205 112.75 205ZM123 215.25C123 220.911 118.411 225.5 112.75 225.5C107.089 225.5 102.5 220.911 102.5 215.25C102.5 209.589 107.089 205 112.75 205C118.411 205 123 209.589 123 215.25ZM133.25 205C138.911 205 143.5 209.589 143.5 215.25C143.5 220.911 138.911 225.5 133.25 225.5C127.589 225.5 123 220.911 123 215.25C123 209.589 127.589 205 133.25 205ZM133.25 205C127.589 205 123 200.411 123 194.75C123 189.089 127.589 184.5 133.25 184.5C138.911 184.5 143.5 189.089 143.5 194.75C143.5 200.411 138.911 205 133.25 205Z" fill="currentColor"></path>
    <path fill-rule="evenodd" clip-rule="evenodd" d="M92.25 184.5C86.5891 184.5 82 179.911 82 174.25V246H164V164H92.25C97.9109 164 102.5 168.589 102.5 174.25C102.5 179.911 97.9109 184.5 92.25 184.5ZM102.5 194.75C102.5 189.089 97.9109 184.5 92.25 184.5C86.5891 184.5 82 189.089 82 194.75C82 200.411 86.5891 205 92.25 205C86.5891 205 82 209.589 82 215.25C82 220.911 86.5891 225.5 92.25 225.5C86.5891 225.5 82 230.089 82 235.75C82 241.411 86.5891 246 92.25 246C97.9109 246 102.5 241.411 102.5 235.75C102.5 241.411 107.089 246 112.75 246C118.411 246 123 241.411 123 235.75C123 241.411 127.589 246 133.25 246C138.911 246 143.5 241.411 143.5 235.75C143.5 241.411 148.089 246 153.75 246C159.411 246 164 241.411 164 235.75C164 230.089 159.411 225.5 153.75 225.5C159.411 225.5 164 220.911 164 215.25C164 209.589 159.411 205 153.75 205C159.411 205 164 200.411 164 194.75C164 189.089 159.411 184.5 153.75 184.5C159.411 184.5 164 179.911 164 174.25C164 168.589 159.411 164 153.75 164C148.089 164 143.5 168.589 143.5 174.25C143.5 168.589 138.911 164 133.25 164C127.589 164 123 168.589 123 174.25C123 168.589 118.411 164 112.75 164C107.089 164 102.5 168.589 102.5 174.25C102.5 179.911 107.089 184.5 112.75 184.5C107.089 184.5 102.5 189.089 102.5 194.75Z" fill="currentColor"></path>
    <path d="M164 164H174.25C168.589 164 164 168.589 164 174.25V164Z" fill="currentColor"></path>
    <path fill-rule="evenodd" clip-rule="evenodd" d="M194.75 205C189.089 205 184.5 200.411 184.5 194.75C184.5 200.411 179.911 205 174.25 205C179.911 205 184.5 209.589 184.5 215.25C184.5 220.911 179.911 225.5 174.25 225.5C179.911 225.5 184.5 230.089 184.5 235.75C184.5 230.089 189.089 225.5 194.75 225.5C200.411 225.5 205 230.089 205 235.75C205 230.089 209.589 225.5 215.25 225.5C220.911 225.5 225.5 230.089 225.5 235.75C225.5 230.089 230.089 225.5 235.75 225.5C230.089 225.5 225.5 220.911 225.5 215.25C225.5 209.589 230.089 205 235.75 205C230.089 205 225.5 200.411 225.5 194.75C225.5 189.089 230.089 184.5 235.75 184.5C230.089 184.5 225.5 179.911 225.5 174.25C225.5 179.911 220.911 184.5 215.25 184.5C209.589 184.5 205 179.911 205 174.25C205 179.911 200.411 184.5 194.75 184.5C200.411 184.5 205 189.089 205 194.75C205 200.411 200.411 205 194.75 205ZM205 215.25C205 220.911 200.411 225.5 194.75 225.5C189.089 225.5 184.5 220.911 184.5 215.25C184.5 209.589 189.089 205 194.75 205C200.411 205 205 209.589 205 215.25ZM215.25 205C220.911 205 225.5 209.589 225.5 215.25C225.5 220.911 220.911 225.5 215.25 225.5C209.589 225.5 205 220.911 205 215.25C205 209.589 209.589 205 215.25 205ZM215.25 205C209.589 205 205 200.411 205 194.75C205 189.089 209.589 184.5 215.25 184.5C220.911 184.5 225.5 189.089 225.5 194.75C225.5 200.411 220.911 205 215.25 205Z" fill="currentColor"></path>
    <path fill-rule="evenodd" clip-rule="evenodd" d="M174.25 184.5C168.589 184.5 164 179.911 164 174.25V246H246V164H174.25C179.911 164 184.5 168.589 184.5 174.25C184.5 179.911 179.911 184.5 174.25 184.5ZM184.5 194.75C184.5 189.089 179.911 184.5 174.25 184.5C168.589 184.5 164 189.089 164 194.75C164 200.411 168.589 205 174.25 205C168.589 205 164 209.589 164 215.25C164 220.911 168.589 225.5 174.25 225.5C168.589 225.5 164 230.089 164 235.75C164 241.411 168.589 246 174.25 246C179.911 246 184.5 241.411 184.5 235.75C184.5 241.411 189.089 246 194.75 246C200.411 246 205 241.411 205 235.75C205 241.411 209.589 246 215.25 246C220.911 246 225.5 241.411 225.5 235.75C225.5 241.411 230.089 246 235.75 246C241.411 246 246 241.411 246 235.75C246 230.089 241.411 225.5 235.75 225.5C241.411 225.5 246 220.911 246 215.25C246 209.589 241.411 205 235.75 205C241.411 205 246 200.411 246 194.75C246 189.089 241.411 184.5 235.75 184.5C241.411 184.5 246 179.911 246 174.25C246 168.589 241.411 164 235.75 164C230.089 164 225.5 168.589 225.5 174.25C225.5 168.589 220.911 164 215.25 164C209.589 164 205 168.589 205 174.25C205 168.589 200.411 164 194.75 164C189.089 164 184.5 168.589 184.5 174.25C184.5 179.911 189.089 184.5 194.75 184.5C189.089 184.5 184.5 189.089 184.5 194.75Z" fill="currentColor"></path>
    <path d="M246 164H256.25C250.589 164 246 168.589 246 174.25V164Z" fill="currentColor"></path>
    <path fill-rule="evenodd" clip-rule="evenodd" d="M276.75 205C271.089 205 266.5 200.411 266.5 194.75C266.5 200.411 261.911 205 256.25 205C261.911 205 266.5 209.589 266.5 215.25C266.5 220.911 261.911 225.5 256.25 225.5C261.911 225.5 266.5 230.089 266.5 235.75C266.5 230.089 271.089 225.5 276.75 225.5C282.411 225.5 287 230.089 287 235.75C287 230.089 291.589 225.5 297.25 225.5C302.911 225.5 307.5 230.089 307.5 235.75C307.5 230.089 312.089 225.5 317.75 225.5C312.089 225.5 307.5 220.911 307.5 215.25C307.5 209.589 312.089 205 317.75 205C312.089 205 307.5 200.411 307.5 194.75C307.5 189.089 312.089 184.5 317.75 184.5C312.089 184.5 307.5 179.911 307.5 174.25C307.5 179.911 302.911 184.5 297.25 184.5C291.589 184.5 287 179.911 287 174.25C287 179.911 282.411 184.5 276.75 184.5C282.411 184.5 287 189.089 287 194.75C287 200.411 282.411 205 276.75 205ZM287 215.25C287 220.911 282.411 225.5 276.75 225.5C271.089 225.5 266.5 220.911 266.5 215.25C266.5 209.589 271.089 205 276.75 205C282.411 205 287 209.589 287 215.25ZM297.25 205C302.911 205 307.5 209.589 307.5 215.25C307.5 220.911 302.911 225.5 297.25 225.5C291.589 225.5 287 220.911 287 215.25C287 209.589 291.589 205 297.25 205ZM297.25 205C291.589 205 287 200.411 287 194.75C287 189.089 291.589 184.5 297.25 184.5C302.911 184.5 307.5 189.089 307.5 194.75C307.5 200.411 302.911 205 297.25 205Z" fill="currentColor"></path>
    <path fill-rule="evenodd" clip-rule="evenodd" d="M256.25 184.5C250.589 184.5 246 179.911 246 174.25V246H328V164H256.25C261.911 164 266.5 168.589 266.5 174.25C266.5 179.911 261.911 184.5 256.25 184.5ZM266.5 194.75C266.5 189.089 261.911 184.5 256.25 184.5C250.589 184.5 246 189.089 246 194.75C246 200.411 250.589 205 256.25 205C250.589 205 246 209.589 246 215.25C246 220.911 250.589 225.5 256.25 225.5C250.589 225.5 246 230.089 246 235.75C246 241.411 250.589 246 256.25 246C261.911 246 266.5 241.411 266.5 235.75C266.5 241.411 271.089 246 276.75 246C282.411 246 287 241.411 287 235.75C287 241.411 291.589 246 297.25 246C302.911 246 307.5 241.411 307.5 235.75C307.5 241.411 312.089 246 317.75 246C323.411 246 328 241.411 328 235.75C328 230.089 323.411 225.5 317.75 225.5C323.411 225.5 328 220.911 328 215.25C328 209.589 323.411 205 317.75 205C323.411 205 328 200.411 328 194.75C328 189.089 323.411 184.5 317.75 184.5C323.411 184.5 328 179.911 328 174.25C328 168.589 323.411 164 317.75 164C312.089 164 307.5 168.589 307.5 174.25C307.5 168.589 302.911 164 297.25 164C291.589 164 287 168.589 287 174.25C287 168.589 282.411 164 276.75 164C271.089 164 266.5 168.589 266.5 174.25C266.5 179.911 271.089 184.5 276.75 184.5C271.089 184.5 266.5 189.089 266.5 194.75Z" fill="currentColor"></path>
    <path d="M0 246H10.25C4.58908 246 0 250.589 0 256.25V246Z" fill="currentColor"></path>
    <path fill-rule="evenodd" clip-rule="evenodd" d="M30.75 287C25.0891 287 20.5 282.411 20.5 276.75C20.5 282.411 15.9109 287 10.25 287C15.9109 287 20.5 291.589 20.5 297.25C20.5 302.911 15.9109 307.5 10.25 307.5C15.9109 307.5 20.5 312.089 20.5 317.75C20.5 312.089 25.0891 307.5 30.75 307.5C36.4109 307.5 41 312.089 41 317.75C41 312.089 45.5891 307.5 51.25 307.5C56.9109 307.5 61.5 312.089 61.5 317.75C61.5 312.089 66.0891 307.5 71.75 307.5C66.0891 307.5 61.5 302.911 61.5 297.25C61.5 291.589 66.0891 287 71.75 287C66.0891 287 61.5 282.411 61.5 276.75C61.5 271.089 66.0891 266.5 71.75 266.5C66.0891 266.5 61.5 261.911 61.5 256.25C61.5 261.911 56.9109 266.5 51.25 266.5C45.5891 266.5 41 261.911 41 256.25C41 261.911 36.4109 266.5 30.75 266.5C36.4109 266.5 41 271.089 41 276.75C41 282.411 36.4109 287 30.75 287ZM41 297.25C41 302.911 36.4109 307.5 30.75 307.5C25.0891 307.5 20.5 302.911 20.5 297.25C20.5 291.589 25.0891 287 30.75 287C36.4109 287 41 291.589 41 297.25ZM51.25 287C56.9109 287 61.5 291.589 61.5 297.25C61.5 302.911 56.9109 307.5 51.25 307.5C45.5891 307.5 41 302.911 41 297.25C41 291.589 45.5891 287 51.25 287ZM51.25 287C45.5891 287 41 282.411 41 276.75C41 271.089 45.5891 266.5 51.25 266.5C56.9109 266.5 61.5 271.089 61.5 276.75C61.5 282.411 56.9109 287 51.25 287Z" fill="currentColor"></path>
    <path fill-rule="evenodd" clip-rule="evenodd" d="M10.25 266.5C4.5891 266.5 0 261.911 0 256.25V328H82V246H10.25C15.9109 246 20.5 250.589 20.5 256.25C20.5 261.911 15.9109 266.5 10.25 266.5ZM20.5 276.75C20.5 271.089 15.9109 266.5 10.25 266.5C4.5891 266.5 0 271.089 0 276.75C0 282.411 4.5891 287 10.25 287C4.5891 287 0 291.589 0 297.25C0 302.911 4.5891 307.5 10.25 307.5C4.5891 307.5 0 312.089 0 317.75C0 323.411 4.5891 328 10.25 328C15.9109 328 20.5 323.411 20.5 317.75C20.5 323.411 25.0891 328 30.75 328C36.4109 328 41 323.411 41 317.75C41 323.411 45.5891 328 51.25 328C56.9109 328 61.5 323.411 61.5 317.75C61.5 323.411 66.0891 328 71.75 328C77.4109 328 82 323.411 82 317.75C82 312.089 77.4109 307.5 71.75 307.5C77.4109 307.5 82 302.911 82 297.25C82 291.589 77.4109 287 71.75 287C77.4109 287 82 282.411 82 276.75C82 271.089 77.4109 266.5 71.75 266.5C77.4109 266.5 82 261.911 82 256.25C82 250.589 77.4109 246 71.75 246C66.0891 246 61.5 250.589 61.5 256.25C61.5 250.589 56.9109 246 51.25 246C45.5891 246 41 250.589 41 256.25C41 250.589 36.4109 246 30.75 246C25.0891 246 20.5 250.589 20.5 256.25C20.5 261.911 25.0891 266.5 30.75 266.5C25.0891 266.5 20.5 271.089 20.5 276.75Z" fill="currentColor"></path>
    <path d="M82 246H92.25C86.5891 246 82 250.589 82 256.25V246Z" fill="currentColor"></path>
    <path fill-rule="evenodd" clip-rule="evenodd" d="M112.75 287C107.089 287 102.5 282.411 102.5 276.75C102.5 282.411 97.9109 287 92.25 287C97.9109 287 102.5 291.589 102.5 297.25C102.5 302.911 97.9109 307.5 92.25 307.5C97.9109 307.5 102.5 312.089 102.5 317.75C102.5 312.089 107.089 307.5 112.75 307.5C118.411 307.5 123 312.089 123 317.75C123 312.089 127.589 307.5 133.25 307.5C138.911 307.5 143.5 312.089 143.5 317.75C143.5 312.089 148.089 307.5 153.75 307.5C148.089 307.5 143.5 302.911 143.5 297.25C143.5 291.589 148.089 287 153.75 287C148.089 287 143.5 282.411 143.5 276.75C143.5 271.089 148.089 266.5 153.75 266.5C148.089 266.5 143.5 261.911 143.5 256.25C143.5 261.911 138.911 266.5 133.25 266.5C127.589 266.5 123 261.911 123 256.25C123 261.911 118.411 266.5 112.75 266.5C118.411 266.5 123 271.089 123 276.75C123 282.411 118.411 287 112.75 287ZM123 297.25C123 302.911 118.411 307.5 112.75 307.5C107.089 307.5 102.5 302.911 102.5 297.25C102.5 291.589 107.089 287 112.75 287C118.411 287 123 291.589 123 297.25ZM133.25 287C138.911 287 143.5 291.589 143.5 297.25C143.5 302.911 138.911 307.5 133.25 307.5C127.589 307.5 123 302.911 123 297.25C123 291.589 127.589 287 133.25 287ZM133.25 287C127.589 287 123 282.411 123 276.75C123 271.089 127.589 266.5 133.25 266.5C138.911 266.5 143.5 271.089 143.5 276.75C143.5 282.411 138.911 287 133.25 287Z" fill="currentColor"></path>
    <path fill-rule="evenodd" clip-rule="evenodd" d="M92.25 266.5C86.5891 266.5 82 261.911 82 256.25V328H164V246H92.25C97.9109 246 102.5 250.589 102.5 256.25C102.5 261.911 97.9109 266.5 92.25 266.5ZM102.5 276.75C102.5 271.089 97.9109 266.5 92.25 266.5C86.5891 266.5 82 271.089 82 276.75C82 282.411 86.5891 287 92.25 287C86.5891 287 82 291.589 82 297.25C82 302.911 86.5891 307.5 92.25 307.5C86.5891 307.5 82 312.089 82 317.75C82 323.411 86.5891 328 92.25 328C97.9109 328 102.5 323.411 102.5 317.75C102.5 323.411 107.089 328 112.75 328C118.411 328 123 323.411 123 317.75C123 323.411 127.589 328 133.25 328C138.911 328 143.5 323.411 143.5 317.75C143.5 323.411 148.089 328 153.75 328C159.411 328 164 323.411 164 317.75C164 312.089 159.411 307.5 153.75 307.5C159.411 307.5 164 302.911 164 297.25C164 291.589 159.411 287 153.75 287C159.411 287 164 282.411 164 276.75C164 271.089 159.411 266.5 153.75 266.5C159.411 266.5 164 261.911 164 256.25C164 250.589 159.411 246 153.75 246C148.089 246 143.5 250.589 143.5 256.25C143.5 250.589 138.911 246 133.25 246C127.589 246 123 250.589 123 256.25C123 250.589 118.411 246 112.75 246C107.089 246 102.5 250.589 102.5 256.25C102.5 261.911 107.089 266.5 112.75 266.5C107.089 266.5 102.5 271.089 102.5 276.75Z" fill="currentColor"></path>
    <path d="M164 246H174.25C168.589 246 164 250.589 164 256.25V246Z" fill="currentColor"></path>
    <path fill-rule="evenodd" clip-rule="evenodd" d="M194.75 287C189.089 287 184.5 282.411 184.5 276.75C184.5 282.411 179.911 287 174.25 287C179.911 287 184.5 291.589 184.5 297.25C184.5 302.911 179.911 307.5 174.25 307.5C179.911 307.5 184.5 312.089 184.5 317.75C184.5 312.089 189.089 307.5 194.75 307.5C200.411 307.5 205 312.089 205 317.75C205 312.089 209.589 307.5 215.25 307.5C220.911 307.5 225.5 312.089 225.5 317.75C225.5 312.089 230.089 307.5 235.75 307.5C230.089 307.5 225.5 302.911 225.5 297.25C225.5 291.589 230.089 287 235.75 287C230.089 287 225.5 282.411 225.5 276.75C225.5 271.089 230.089 266.5 235.75 266.5C230.089 266.5 225.5 261.911 225.5 256.25C225.5 261.911 220.911 266.5 215.25 266.5C209.589 266.5 205 261.911 205 256.25C205 261.911 200.411 266.5 194.75 266.5C200.411 266.5 205 271.089 205 276.75C205 282.411 200.411 287 194.75 287ZM205 297.25C205 302.911 200.411 307.5 194.75 307.5C189.089 307.5 184.5 302.911 184.5 297.25C184.5 291.589 189.089 287 194.75 287C200.411 287 205 291.589 205 297.25ZM215.25 287C220.911 287 225.5 291.589 225.5 297.25C225.5 302.911 220.911 307.5 215.25 307.5C209.589 307.5 205 302.911 205 297.25C205 291.589 209.589 287 215.25 287ZM215.25 287C209.589 287 205 282.411 205 276.75C205 271.089 209.589 266.5 215.25 266.5C220.911 266.5 225.5 271.089 225.5 276.75C225.5 282.411 220.911 287 215.25 287Z" fill="currentColor"></path>
    <path fill-rule="evenodd" clip-rule="evenodd" d="M174.25 266.5C168.589 266.5 164 261.911 164 256.25V328H246V246H174.25C179.911 246 184.5 250.589 184.5 256.25C184.5 261.911 179.911 266.5 174.25 266.5ZM184.5 276.75C184.5 271.089 179.911 266.5 174.25 266.5C168.589 266.5 164 271.089 164 276.75C164 282.411 168.589 287 174.25 287C168.589 287 164 291.589 164 297.25C164 302.911 168.589 307.5 174.25 307.5C168.589 307.5 164 312.089 164 317.75C164 323.411 168.589 328 174.25 328C179.911 328 184.5 323.411 184.5 317.75C184.5 323.411 189.089 328 194.75 328C200.411 328 205 323.411 205 317.75C205 323.411 209.589 328 215.25 328C220.911 328 225.5 323.411 225.5 317.75C225.5 323.411 230.089 328 235.75 328C241.411 328 246 323.411 246 317.75C246 312.089 241.411 307.5 235.75 307.5C241.411 307.5 246 302.911 246 297.25C246 291.589 241.411 287 235.75 287C241.411 287 246 282.411 246 276.75C246 271.089 241.411 266.5 235.75 266.5C241.411 266.5 246 261.911 246 256.25C246 250.589 241.411 246 235.75 246C230.089 246 225.5 250.589 225.5 256.25C225.5 250.589 220.911 246 215.25 246C209.589 246 205 250.589 205 256.25C205 250.589 200.411 246 194.75 246C189.089 246 184.5 250.589 184.5 256.25C184.5 261.911 189.089 266.5 194.75 266.5C189.089 266.5 184.5 271.089 184.5 276.75Z" fill="currentColor"></path>
    <path d="M246 246H256.25C250.589 246 246 250.589 246 256.25V246Z" fill="currentColor"></path>
    <path fill-rule="evenodd" clip-rule="evenodd" d="M276.75 287C271.089 287 266.5 282.411 266.5 276.75C266.5 282.411 261.911 287 256.25 287C261.911 287 266.5 291.589 266.5 297.25C266.5 302.911 261.911 307.5 256.25 307.5C261.911 307.5 266.5 312.089 266.5 317.75C266.5 312.089 271.089 307.5 276.75 307.5C282.411 307.5 287 312.089 287 317.75C287 312.089 291.589 307.5 297.25 307.5C302.911 307.5 307.5 312.089 307.5 317.75C307.5 312.089 312.089 307.5 317.75 307.5C312.089 307.5 307.5 302.911 307.5 297.25C307.5 291.589 312.089 287 317.75 287C312.089 287 307.5 282.411 307.5 276.75C307.5 271.089 312.089 266.5 317.75 266.5C312.089 266.5 307.5 261.911 307.5 256.25C307.5 261.911 302.911 266.5 297.25 266.5C291.589 266.5 287 261.911 287 256.25C287 261.911 282.411 266.5 276.75 266.5C282.411 266.5 287 271.089 287 276.75C287 282.411 282.411 287 276.75 287ZM287 297.25C287 302.911 282.411 307.5 276.75 307.5C271.089 307.5 266.5 302.911 266.5 297.25C266.5 291.589 271.089 287 276.75 287C282.411 287 287 291.589 287 297.25ZM297.25 287C302.911 287 307.5 291.589 307.5 297.25C307.5 302.911 302.911 307.5 297.25 307.5C291.589 307.5 287 302.911 287 297.25C287 291.589 291.589 287 297.25 287ZM297.25 287C291.589 287 287 282.411 287 276.75C287 271.089 291.589 266.5 297.25 266.5C302.911 266.5 307.5 271.089 307.5 276.75C307.5 282.411 302.911 287 297.25 287Z" fill="currentColor"></path>
    <path fill-rule="evenodd" clip-rule="evenodd" d="M256.25 266.5C250.589 266.5 246 261.911 246 256.25V328H328V246H256.25C261.911 246 266.5 250.589 266.5 256.25C266.5 261.911 261.911 266.5 256.25 266.5ZM266.5 276.75C266.5 271.089 261.911 266.5 256.25 266.5C250.589 266.5 246 271.089 246 276.75C246 282.411 250.589 287 256.25 287C250.589 287 246 291.589 246 297.25C246 302.911 250.589 307.5 256.25 307.5C250.589 307.5 246 312.089 246 317.75C246 323.411 250.589 328 256.25 328C261.911 328 266.5 323.411 266.5 317.75C266.5 323.411 271.089 328 276.75 328C282.411 328 287 323.411 287 317.75C287 323.411 291.589 328 297.25 328C302.911 328 307.5 323.411 307.5 317.75C307.5 323.411 312.089 328 317.75 328C323.411 328 328 323.411 328 317.75C328 312.089 323.411 307.5 317.75 307.5C323.411 307.5 328 302.911 328 297.25C328 291.589 323.411 287 317.75 287C323.411 287 328 282.411 328 276.75C328 271.089 323.411 266.5 317.75 266.5C323.411 266.5 328 261.911 328 256.25C328 250.589 323.411 246 317.75 246C312.089 246 307.5 250.589 307.5 256.25C307.5 250.589 302.911 246 297.25 246C291.589 246 287 250.589 287 256.25C287 250.589 282.411 246 276.75 246C271.089 246 266.5 250.589 266.5 256.25C266.5 261.911 271.089 266.5 276.75 266.5C271.089 266.5 266.5 271.089 266.5 276.75Z" fill="currentColor"></path>
  </g>
  <defs>
    <clipPath id="clip0_362_99">
      <rect width="328" height="328" fill="white"></rect>
    </clipPath>
  </defs>
</svg>
