<svg viewBox="0 0 40 40" fill="currentColor" xmlns="http://www.w3.org/2000/svg" class="icon_medium__PZVr0 icon_defaultz__ggwJV tabs_icon__rtStM" data-testid="_3dBuildingInstructionsO"><path d="M20.003 11.884c-2.498 0-4.385 1.2-4.385 2.784v2.262c0 1.593 1.887 2.784 4.385 2.784 2.499 0 4.394-1.19 4.394-2.784v-2.262c.008-1.585-1.844-2.784-4.394-2.784Zm0 1.5c1.776 0 2.915.762 2.915 1.284 0 .523-1.13 1.294-2.915 1.294-1.785 0-2.906-.763-2.906-1.294 0-.53 1.147-1.285 2.906-1.285Zm0 4.848c-1.768 0-2.906-.762-2.906-1.293v-.163c.9.462 1.895.694 2.906.677a6.156 6.156 0 0 0 2.915-.677v.154c.009.54-1.13 1.302-2.915 1.302ZM37 13.263a.55.55 0 0 0-.068-.162l-.102-.129-.11-.086-3.391-1.953v-.857c0-1.593-1.887-2.784-4.386-2.784a6.683 6.683 0 0 0-1.7.197l-2.838-1.568v-.128C24.405 4.199 22.553 3 20.003 3s-4.377 1.2-4.377 2.793v.12l-2.88 1.593a6.682 6.682 0 0 0-1.7-.197C8.547 7.31 6.66 8.5 6.66 10.094v.856l-3.272 1.86a.332.332 0 0 0-.085.068l-.06.051a.857.857 0 0 0-.085.103v.051a.62.62 0 0 0-.076.172h-.077a1.214 1.214 0 0 0 0 .248v12.62c0 .273.145.522.383.65l16.257 9.133a.677.677 0 0 0 .689 0l16.232-9.124a.734.734 0 0 0 .382-.651V13.503a.579.579 0 0 0 .051-.24Zm-10.963-1.045a5.913 5.913 0 0 0 2.907.685 6.13 6.13 0 0 0 2.906-.685v.171c0 .523-1.139 1.286-2.907 1.286-1.767 0-2.906-.763-2.906-1.286v-.17Zm5.813-2.099a.61.61 0 0 1-.077.24l-.05.069a1.706 1.706 0 0 1-.162.188l-.085.069a2.295 2.295 0 0 1-.28.188l-.085.052a3.178 3.178 0 0 1-.493.214 4.97 4.97 0 0 1-1.7.265c-1.776 0-2.906-.762-2.906-1.285 0-.308.39-.694 1.062-.96l.34-.12h.11l.306-.068.255-.043h.833c.23 0 .459.017.688.043 1.394.06 2.244.694 2.244 1.148Zm-8.923-4.326a.685.685 0 0 1-.051.188l-.06.103-.06.077-.135.146c-.068.06-.145.111-.221.163a4.356 4.356 0 0 1-2.397.608 4.401 4.401 0 0 1-2.362-.6l-.187-.154-.128-.137-.06-.086a.633.633 0 0 1-.059-.103.468.468 0 0 1-.102-.205c0-.523 1.139-1.285 2.907-1.285 1.767 0 2.915.754 2.915 1.285ZM17.105 7.9a6.12 6.12 0 0 0 2.907.677 6.155 6.155 0 0 0 2.915-.677v.163c0 .523-1.14 1.294-2.915 1.294-1.777 0-2.907-.771-2.907-1.294V7.9Zm-6.739.977c.238-.034.476-.051.714-.051h.824l.255.042.306.069h.12l.33.111c.68.266 1.08.66 1.08.968 0 .523-1.139 1.285-2.915 1.285a4.97 4.97 0 0 1-1.7-.265 3.407 3.407 0 0 1-.425-.103l-.11-.06-.255-.18-.094-.077a.994.994 0 0 1-.153-.18l-.05-.077a.532.532 0 0 1-.077-.231c-.034-.471.799-1.08 2.15-1.251Zm-2.193 3.341a6.13 6.13 0 0 0 2.907.685 6.063 6.063 0 0 0 2.915-.685v.171c0 .523-1.139 1.286-2.915 1.286s-2.907-.763-2.907-1.286v-.17Zm-1.444.428c.187 1.457 1.988 2.57 4.35 2.57 2.508 0 4.394-1.199 4.394-2.784V10.12a2.298 2.298 0 0 0-1.045-1.825l1.198-.676v.437c0 1.584 1.887 2.784 4.386 2.784 2.498 0 4.393-1.2 4.393-2.784v-.42l1.182.668a2.287 2.287 0 0 0-1.037 1.816v2.27c0 1.585 1.886 2.785 4.393 2.785 2.363 0 4.156-1.071 4.352-2.528l1.436.814-14.728 8.216-5.099-2.87-9.629-5.303 1.454-.857Zm-2.235 2.082 5.804 3.239 8.966 5.003v11.008l-14.77-8.293V14.728Zm16.257 19.25V22.97l14.762-8.242v10.949L20.75 33.978Z"></path></svg>