<svg viewBox="0 0 40 40" fill="currentColor" xmlns="http://www.w3.org/2000/svg" class="icon_medium__PZVr0 icon_defaultz__ggwJV tabs_icon__rtStM" data-testid="MediaImageO"><path d="M12.5 16a3.5 3.5 0 1 0 0-7 3.5 3.5 0 0 0 0 7Z"></path><path fill-rule="evenodd" clip-rule="evenodd" d="M3.944 3h32.112a.944.944 0 0 1 .944.944v32.112a.945.945 0 0 1-.944.944H3.944A.944.944 0 0 1 3 36.056V3.944A.944.944 0 0 1 3.944 3ZM34 24.466V6H6v24.405l7.649-10.467a2.3 2.3 0 0 1 3.702-.01l1.707 2.355L24.028 15a2.3 2.3 0 0 1 3.81.044L34 24.466Zm0 5.48L25.904 17.56l-4.96 7.269 6.918 9.338H34v-4.22Zm-9.872 4.22-8.622-11.638-8.535 11.639h17.157Z"></path></svg>