<svg width="30" height="30" aria-hidden="true" xmlns="http://www.w3.org/2000/svg" viewBox="0 0 25 28" class="Icon__StyledSVG-lm07h6-0 bZwYCQ"><g fill="none"><path d="M2.975 1.14c-.943 0-1.716.777-1.716 1.726v22.44c0 .949.773 1.726 1.716 1.726H22.71c.944 0 1.716-.777 1.716-1.726V2.866c0-.95-.772-1.726-1.716-1.726H2.975z" stroke="#006DB7" stroke-width="2.055" fill="#FFF"></path><path d="M18.276 7.904V6.296a.121.121 0 00-.121-.122h-3.39a.121.121 0 00-.122.122v1.608h0H11.4V6.296a.121.121 0 00-.121-.122H7.91a.121.121 0 00-.12.122v1.608h0-1.342a.121.121 0 00-.121.122v7.377c0 .067.054.121.121.121H19.96a.121.121 0 00.121-.121V8.026a.121.121 0 00-.121-.122h-1.684 0z" stroke="#006DB7" stroke-width="1.37" fill="#FFF"></path><path fill="#006DB7" d="M6.407 20.09H19.62v-1.363H6.407zM6.407 23.36H19.62v-1.363H6.407z"></path></g></svg>